<?xml version="1.0" encoding="utf-8"?>
<!-- Generator: Adobe Illustrator 24.0.1, SVG Export Plug-In . SVG Version: 6.00 Build 0)  -->
<svg version="1.1" id="hoverMe" xmlns="http://www.w3.org/2000/svg" xmlns:xlink="http://www.w3.org/1999/xlink" x="0px" y="0px"
	 viewBox="0 0 73.9 74.6" style="enable-background:new 0 0 73.9 74.6;" xml:space="preserve">
<style type="text/css">
	.st0{fill:#EF7215;stroke:#EF7215;stroke-miterlimit:10;}
	.st1{fill:#EF7215;}
	.st2{font-family:open sans;}
	.st3{font-size:12px;}
</style>
<title>hoverme</title>
<path class="st0" d="M32.6,21.1c-1.3,4.9-2.7,8,2.5,19.9c6.1,13.9,18.5,20.4,24.8,23.4c-4.3-2,1.3,1.4,13,4.9
	c-1.7-2.6-3.2-5.4-4.5-8.2c-4.9-12.6-4.1-7.6-4.1-7.6l-6.5,20.1c5.5-2.6,9.6-1.7,15.1-4.3c-7.8-11.1-19-12.5-30.9-25.2
	C30.4,31.9,33.3,27.9,32.6,21.1z"/>
<text transform="matrix(0.9706 -0.2407 0.2407 0.9706 2.5399 23.7301)" class="st1 st2 st3">Hover me!</text>
</svg>
